<svg id="Layer_1" data-name="Layer 1" xmlns="http://www.w3.org/2000/svg" viewBox="0 0 360 493"><defs><style>.cls-1{fill:#009245;}.cls-2{fill:none;stroke:#009245;stroke-linecap:round;stroke-miterlimit:10;stroke-width:19px;}</style></defs><path class="cls-1" d="M355,456V436c1.12-7.87,1.66-15.87,3.44-23.58q25-107.93,131.31-139.33C500.5,269.93,511.9,269,523,267h25c2.79.38,5.57.81,8.36,1.15A179.15,179.15,0,0,1,710.1,406c2.28,9.84,3.3,20,4.9,30v20c-.3,2.12-.71,4.24-.89,6.38-2.26,27-9.94,52.27-24.45,75.14-6.83,10.77-15.51,20.35-22.77,30.88q-51.71,75-103.07,150.26C554.44,732.37,545.27,746.22,536,760h-1a43.8,43.8,0,0,0-2.17-3.85Q480,679.55,427.13,603c-9.08-13.13-17.5-26.81-27.57-39.13-19-23.21-32.6-48.9-39.52-78C357.71,476.06,356.64,466,355,456ZM535.41,701.67c1.14-1.52,2-2.55,2.71-3.64q36-52.5,72-105c12.17-17.67,24.1-35.54,37-52.68,34.21-45.5,42.34-95.05,20.95-147.69C640.63,325.23,570.69,290.85,499.86,308c-85.55,20.7-132.65,116.17-97.1,196.63,6.85,15.5,16.72,29,26.57,42.63,18.67,25.92,36.3,52.58,54.36,78.94C500.81,651.16,517.92,676.14,535.41,701.67Z" transform="translate(-355 -267)"/><polyline class="cls-2" points="60.5 208.5 60 273.16 299 273 299.5 204.5"/></svg>